<mxfile host="app.diagrams.net" agent="Mozilla/5.0 (Windows NT 10.0; Win64; x64) AppleWebKit/537.36 (KHTML, like Gecko) Chrome/110.0.0.0 Safari/537.36" version="24.7.12">
  <diagram name="PÃ¡gina-1" id="badeSgl3rarpciUWfAk7">
    <mxGraphModel dx="1707" dy="395" grid="1" gridSize="10" guides="1" tooltips="1" connect="1" arrows="1" fold="1" page="1" pageScale="1" pageWidth="827" pageHeight="1169" math="0" shadow="0">
      <root>
        <mxCell id="0" />
        <mxCell id="1" parent="0" />
        <mxCell id="VERpzVBWQR2P2o2Z3do2-19" value="Nivel Logica de Negocio ABCall" style="shape=folder;fontStyle=1;spacingTop=10;tabWidth=40;tabHeight=14;tabPosition=left;html=1;whiteSpace=wrap;verticalAlign=top;" parent="1" vertex="1">
          <mxGeometry x="-500" y="210" width="790" height="680" as="geometry" />
        </mxCell>
        <mxCell id="LsTmcPjPgr7ocmJJOF8i-79" value="Capa de Datos (Modelo)" style="shape=folder;fontStyle=1;spacingTop=10;tabWidth=40;tabHeight=14;tabPosition=left;html=1;whiteSpace=wrap;verticalAlign=top;align=left;fillColor=#e1d5e7;strokeColor=#9673a6;" vertex="1" parent="1">
          <mxGeometry x="-475" y="660" width="740" height="195" as="geometry" />
        </mxCell>
        <mxCell id="LsTmcPjPgr7ocmJJOF8i-29" value="Capa Controlador" style="shape=folder;fontStyle=1;spacingTop=10;tabWidth=40;tabHeight=14;tabPosition=left;html=1;whiteSpace=wrap;verticalAlign=top;align=left;fillColor=#ffe6cc;strokeColor=#d79b00;" vertex="1" parent="1">
          <mxGeometry x="-475" y="435" width="740" height="195" as="geometry" />
        </mxCell>
        <mxCell id="oYlXpJVkNZ7Khja5sfW1-8" value="" style="ellipse;whiteSpace=wrap;html=1;align=center;aspect=fixed;fillColor=none;strokeColor=none;resizable=0;perimeter=centerPerimeter;rotatable=0;allowArrows=0;points=[];outlineConnect=1;" parent="1" vertex="1">
          <mxGeometry x="-100" y="360" width="10" height="10" as="geometry" />
        </mxCell>
        <mxCell id="oYlXpJVkNZ7Khja5sfW1-72" value="" style="ellipse;whiteSpace=wrap;html=1;align=center;aspect=fixed;fillColor=none;strokeColor=none;resizable=0;perimeter=centerPerimeter;rotatable=0;allowArrows=0;points=[];outlineConnect=1;" parent="1" vertex="1">
          <mxGeometry x="122" y="250" width="10" height="10" as="geometry" />
        </mxCell>
        <mxCell id="VERpzVBWQR2P2o2Z3do2-1" value="Nivel de presentacion&lt;div&gt;Capa de presentacion&lt;/div&gt;" style="shape=folder;fontStyle=1;spacingTop=10;tabWidth=40;tabHeight=14;tabPosition=left;html=1;whiteSpace=wrap;verticalAlign=top;fillColor=#dae8fc;strokeColor=#6c8ebf;" parent="1" vertex="1">
          <mxGeometry x="-500" y="20" width="790" height="170" as="geometry" />
        </mxCell>
        <mxCell id="VERpzVBWQR2P2o2Z3do2-2" value="&amp;lt;&amp;lt;component&amp;gt;&amp;gt;&lt;div&gt;&lt;b&gt;:Agente Web 360&lt;/b&gt;&lt;/div&gt;" style="html=1;dropTarget=0;whiteSpace=wrap;" parent="1" vertex="1">
          <mxGeometry x="-350" y="84" width="120" height="60" as="geometry" />
        </mxCell>
        <mxCell id="VERpzVBWQR2P2o2Z3do2-3" value="" style="shape=module;jettyWidth=8;jettyHeight=4;" parent="VERpzVBWQR2P2o2Z3do2-2" vertex="1">
          <mxGeometry x="1" width="20" height="20" relative="1" as="geometry">
            <mxPoint x="-27" y="7" as="offset" />
          </mxGeometry>
        </mxCell>
        <mxCell id="VERpzVBWQR2P2o2Z3do2-4" value="&amp;lt;&amp;lt;component&amp;gt;&amp;gt;&lt;div&gt;&lt;b&gt;:Cliente Web&lt;/b&gt;&lt;/div&gt;" style="html=1;dropTarget=0;whiteSpace=wrap;" parent="1" vertex="1">
          <mxGeometry x="60" y="84" width="110" height="60" as="geometry" />
        </mxCell>
        <mxCell id="VERpzVBWQR2P2o2Z3do2-5" value="" style="shape=module;jettyWidth=8;jettyHeight=4;" parent="VERpzVBWQR2P2o2Z3do2-4" vertex="1">
          <mxGeometry x="1" width="20" height="20" relative="1" as="geometry">
            <mxPoint x="-27" y="7" as="offset" />
          </mxGeometry>
        </mxCell>
        <mxCell id="VERpzVBWQR2P2o2Z3do2-6" value="&amp;lt;&amp;lt;component&amp;gt;&amp;gt;&lt;div&gt;&lt;b&gt;:Usuario Movil&lt;/b&gt;&lt;/div&gt;" style="html=1;dropTarget=0;whiteSpace=wrap;" parent="1" vertex="1">
          <mxGeometry x="-75" y="84" width="120" height="60" as="geometry" />
        </mxCell>
        <mxCell id="VERpzVBWQR2P2o2Z3do2-7" value="" style="shape=module;jettyWidth=8;jettyHeight=4;" parent="VERpzVBWQR2P2o2Z3do2-6" vertex="1">
          <mxGeometry x="1" width="20" height="20" relative="1" as="geometry">
            <mxPoint x="-27" y="7" as="offset" />
          </mxGeometry>
        </mxCell>
        <mxCell id="VERpzVBWQR2P2o2Z3do2-8" value="&amp;lt;&amp;lt;component&amp;gt;&amp;gt;&lt;div&gt;&lt;b&gt;:Usuario Web&lt;/b&gt;&lt;/div&gt;" style="html=1;dropTarget=0;whiteSpace=wrap;" parent="1" vertex="1">
          <mxGeometry x="-210" y="84" width="120" height="60" as="geometry" />
        </mxCell>
        <mxCell id="VERpzVBWQR2P2o2Z3do2-9" value="" style="shape=module;jettyWidth=8;jettyHeight=4;" parent="VERpzVBWQR2P2o2Z3do2-8" vertex="1">
          <mxGeometry x="1" width="20" height="20" relative="1" as="geometry">
            <mxPoint x="-27" y="7" as="offset" />
          </mxGeometry>
        </mxCell>
        <mxCell id="VERpzVBWQR2P2o2Z3do2-12" value="Capa Canales de Atencion" style="shape=folder;fontStyle=1;spacingTop=10;tabWidth=40;tabHeight=14;tabPosition=left;html=1;whiteSpace=wrap;verticalAlign=top;align=left;fillColor=#f5f5f5;fontColor=#333333;strokeColor=#666666;" parent="1" vertex="1">
          <mxGeometry x="-480" y="240" width="760" height="130" as="geometry" />
        </mxCell>
        <mxCell id="VERpzVBWQR2P2o2Z3do2-13" value="&amp;lt;&amp;lt;component&amp;gt;&amp;gt;&lt;div&gt;&lt;b&gt;:Web&lt;/b&gt;&lt;/div&gt;" style="html=1;dropTarget=0;whiteSpace=wrap;fillColor=#d5e8d4;strokeColor=#82b366;" parent="1" vertex="1">
          <mxGeometry x="-30" y="290" width="180" height="57.5" as="geometry" />
        </mxCell>
        <mxCell id="VERpzVBWQR2P2o2Z3do2-14" value="" style="shape=module;jettyWidth=8;jettyHeight=4;" parent="VERpzVBWQR2P2o2Z3do2-13" vertex="1">
          <mxGeometry x="1" width="20" height="20" relative="1" as="geometry">
            <mxPoint x="-27" y="7" as="offset" />
          </mxGeometry>
        </mxCell>
        <mxCell id="VERpzVBWQR2P2o2Z3do2-26" value="&amp;lt;&amp;lt;component&amp;gt;&amp;gt;&lt;div&gt;&lt;b&gt;:Sistema Experto&lt;/b&gt;&lt;/div&gt;" style="html=1;dropTarget=0;whiteSpace=wrap;" parent="1" vertex="1">
          <mxGeometry x="-425.75" y="510" width="125" height="60" as="geometry" />
        </mxCell>
        <mxCell id="VERpzVBWQR2P2o2Z3do2-27" value="" style="shape=module;jettyWidth=8;jettyHeight=4;" parent="VERpzVBWQR2P2o2Z3do2-26" vertex="1">
          <mxGeometry x="1" width="20" height="20" relative="1" as="geometry">
            <mxPoint x="-27" y="7" as="offset" />
          </mxGeometry>
        </mxCell>
        <mxCell id="VERpzVBWQR2P2o2Z3do2-28" value="&amp;lt;&amp;lt;component&amp;gt;&amp;gt;&lt;div&gt;&lt;b&gt;:GestorCliente&lt;/b&gt;&lt;/div&gt;" style="html=1;dropTarget=0;whiteSpace=wrap;" parent="1" vertex="1">
          <mxGeometry x="-10" y="545" width="120" height="60" as="geometry" />
        </mxCell>
        <mxCell id="VERpzVBWQR2P2o2Z3do2-29" value="" style="shape=module;jettyWidth=8;jettyHeight=4;" parent="VERpzVBWQR2P2o2Z3do2-28" vertex="1">
          <mxGeometry x="1" width="20" height="20" relative="1" as="geometry">
            <mxPoint x="-27" y="7" as="offset" />
          </mxGeometry>
        </mxCell>
        <mxCell id="VERpzVBWQR2P2o2Z3do2-30" value="&amp;lt;&amp;lt;component&amp;gt;&amp;gt;&lt;div&gt;&lt;b&gt;:GestorIncidentes&lt;/b&gt;&lt;/div&gt;" style="html=1;dropTarget=0;whiteSpace=wrap;" parent="1" vertex="1">
          <mxGeometry x="-187.5" y="485" width="127.5" height="60" as="geometry" />
        </mxCell>
        <mxCell id="VERpzVBWQR2P2o2Z3do2-31" value="" style="shape=module;jettyWidth=8;jettyHeight=4;" parent="VERpzVBWQR2P2o2Z3do2-30" vertex="1">
          <mxGeometry x="1" width="20" height="20" relative="1" as="geometry">
            <mxPoint x="-27" y="7" as="offset" />
          </mxGeometry>
        </mxCell>
        <mxCell id="VERpzVBWQR2P2o2Z3do2-32" value="&amp;lt;&amp;lt;component&amp;gt;&amp;gt;&lt;div&gt;&lt;b&gt;:Facturacion&lt;/b&gt;&lt;/div&gt;" style="html=1;dropTarget=0;whiteSpace=wrap;" parent="1" vertex="1">
          <mxGeometry x="160" y="545" width="95" height="60" as="geometry" />
        </mxCell>
        <mxCell id="VERpzVBWQR2P2o2Z3do2-33" value="" style="shape=module;jettyWidth=8;jettyHeight=4;" parent="VERpzVBWQR2P2o2Z3do2-32" vertex="1">
          <mxGeometry x="1" width="20" height="20" relative="1" as="geometry">
            <mxPoint x="-27" y="7" as="offset" />
          </mxGeometry>
        </mxCell>
        <mxCell id="VERpzVBWQR2P2o2Z3do2-34" value="Nivel de Persistencia" style="shape=folder;fontStyle=1;spacingTop=10;tabWidth=40;tabHeight=14;tabPosition=left;html=1;whiteSpace=wrap;verticalAlign=top;align=left;" parent="1" vertex="1">
          <mxGeometry x="-500" y="920" width="790" height="125" as="geometry" />
        </mxCell>
        <mxCell id="VERpzVBWQR2P2o2Z3do2-39" value="" style="ellipse;whiteSpace=wrap;html=1;align=center;aspect=fixed;fillColor=none;strokeColor=none;resizable=0;perimeter=centerPerimeter;rotatable=0;allowArrows=0;points=[];outlineConnect=1;" parent="1" vertex="1">
          <mxGeometry x="-20" y="450" width="10" height="10" as="geometry" />
        </mxCell>
        <mxCell id="VERpzVBWQR2P2o2Z3do2-48" value="" style="ellipse;whiteSpace=wrap;html=1;align=center;aspect=fixed;fillColor=none;strokeColor=none;resizable=0;perimeter=centerPerimeter;rotatable=0;allowArrows=0;points=[];outlineConnect=1;" parent="1" vertex="1">
          <mxGeometry x="136.25" y="410" width="10" height="10" as="geometry" />
        </mxCell>
        <mxCell id="VERpzVBWQR2P2o2Z3do2-51" value="" style="ellipse;whiteSpace=wrap;html=1;align=center;aspect=fixed;fillColor=none;strokeColor=none;resizable=0;perimeter=centerPerimeter;rotatable=0;allowArrows=0;points=[];outlineConnect=1;" parent="1" vertex="1">
          <mxGeometry x="193.75" y="445" width="10" height="10" as="geometry" />
        </mxCell>
        <mxCell id="VERpzVBWQR2P2o2Z3do2-52" value="&amp;lt;&amp;lt;component&amp;gt;&amp;gt;&lt;div&gt;&lt;b&gt;:DBMS&lt;/b&gt;&lt;/div&gt;" style="html=1;dropTarget=0;whiteSpace=wrap;" parent="1" vertex="1">
          <mxGeometry x="-187.5" y="960" width="140" height="60" as="geometry" />
        </mxCell>
        <mxCell id="VERpzVBWQR2P2o2Z3do2-53" value="" style="shape=module;jettyWidth=8;jettyHeight=4;" parent="VERpzVBWQR2P2o2Z3do2-52" vertex="1">
          <mxGeometry x="1" width="20" height="20" relative="1" as="geometry">
            <mxPoint x="-27" y="7" as="offset" />
          </mxGeometry>
        </mxCell>
        <mxCell id="VERpzVBWQR2P2o2Z3do2-54" value="&amp;lt;&amp;lt;component&amp;gt;&amp;gt;&lt;div&gt;&lt;b&gt;:Incidente&lt;/b&gt;&lt;/div&gt;" style="html=1;dropTarget=0;whiteSpace=wrap;" parent="1" vertex="1">
          <mxGeometry x="-266.25" y="740" width="115" height="60" as="geometry" />
        </mxCell>
        <mxCell id="VERpzVBWQR2P2o2Z3do2-55" value="" style="shape=module;jettyWidth=8;jettyHeight=4;" parent="VERpzVBWQR2P2o2Z3do2-54" vertex="1">
          <mxGeometry x="1" width="20" height="20" relative="1" as="geometry">
            <mxPoint x="-27" y="7" as="offset" />
          </mxGeometry>
        </mxCell>
        <mxCell id="VERpzVBWQR2P2o2Z3do2-61" value="" style="ellipse;whiteSpace=wrap;html=1;align=center;aspect=fixed;fillColor=none;strokeColor=none;resizable=0;perimeter=centerPerimeter;rotatable=0;allowArrows=0;points=[];outlineConnect=1;" parent="1" vertex="1">
          <mxGeometry x="111.25" y="510" width="10" height="10" as="geometry" />
        </mxCell>
        <mxCell id="VERpzVBWQR2P2o2Z3do2-67" value="" style="ellipse;whiteSpace=wrap;html=1;align=center;aspect=fixed;fillColor=none;strokeColor=none;resizable=0;perimeter=centerPerimeter;rotatable=0;allowArrows=0;points=[];outlineConnect=1;" parent="1" vertex="1">
          <mxGeometry x="-308.75" y="410" width="10" height="10" as="geometry" />
        </mxCell>
        <mxCell id="VERpzVBWQR2P2o2Z3do2-73" value="" style="ellipse;whiteSpace=wrap;html=1;align=center;aspect=fixed;fillColor=none;strokeColor=none;resizable=0;perimeter=centerPerimeter;rotatable=0;allowArrows=0;points=[];outlineConnect=1;" parent="1" vertex="1">
          <mxGeometry x="-393.75" y="410" width="10" height="10" as="geometry" />
        </mxCell>
        <mxCell id="VERpzVBWQR2P2o2Z3do2-74" value="" style="rounded=0;orthogonalLoop=1;jettySize=auto;html=1;endArrow=halfCircle;endFill=0;endSize=6;strokeWidth=1;sketch=0;exitX=0.5;exitY=1;exitDx=0;exitDy=0;" parent="1" source="VERpzVBWQR2P2o2Z3do2-8" target="VERpzVBWQR2P2o2Z3do2-76" edge="1">
          <mxGeometry relative="1" as="geometry">
            <mxPoint x="-140" y="220" as="sourcePoint" />
          </mxGeometry>
        </mxCell>
        <mxCell id="VERpzVBWQR2P2o2Z3do2-75" value="" style="rounded=0;orthogonalLoop=1;jettySize=auto;html=1;endArrow=oval;endFill=0;sketch=0;sourcePerimeterSpacing=0;targetPerimeterSpacing=0;endSize=10;exitX=0.336;exitY=-0.017;exitDx=0;exitDy=0;exitPerimeter=0;" parent="1" source="VERpzVBWQR2P2o2Z3do2-13" target="VERpzVBWQR2P2o2Z3do2-76" edge="1">
          <mxGeometry relative="1" as="geometry">
            <mxPoint x="-250" y="215" as="sourcePoint" />
          </mxGeometry>
        </mxCell>
        <mxCell id="VERpzVBWQR2P2o2Z3do2-76" value="" style="ellipse;whiteSpace=wrap;html=1;align=center;aspect=fixed;fillColor=none;strokeColor=none;resizable=0;perimeter=centerPerimeter;rotatable=0;allowArrows=0;points=[];outlineConnect=1;" parent="1" vertex="1">
          <mxGeometry x="-10" y="200" width="10" height="10" as="geometry" />
        </mxCell>
        <mxCell id="VERpzVBWQR2P2o2Z3do2-77" value="" style="rounded=0;orthogonalLoop=1;jettySize=auto;html=1;endArrow=halfCircle;endFill=0;endSize=6;strokeWidth=1;sketch=0;exitX=0.5;exitY=1;exitDx=0;exitDy=0;entryX=1.1;entryY=0.2;entryDx=0;entryDy=0;entryPerimeter=0;" parent="1" source="VERpzVBWQR2P2o2Z3do2-6" target="VERpzVBWQR2P2o2Z3do2-76" edge="1">
          <mxGeometry relative="1" as="geometry">
            <mxPoint x="5" y="225" as="sourcePoint" />
          </mxGeometry>
        </mxCell>
        <mxCell id="VERpzVBWQR2P2o2Z3do2-80" value="" style="rounded=0;orthogonalLoop=1;jettySize=auto;html=1;endArrow=halfCircle;endFill=0;endSize=6;strokeWidth=1;sketch=0;exitX=0.5;exitY=1;exitDx=0;exitDy=0;" parent="1" source="VERpzVBWQR2P2o2Z3do2-4" target="VERpzVBWQR2P2o2Z3do2-82" edge="1">
          <mxGeometry relative="1" as="geometry">
            <mxPoint x="140" y="225" as="sourcePoint" />
          </mxGeometry>
        </mxCell>
        <mxCell id="VERpzVBWQR2P2o2Z3do2-81" value="" style="rounded=0;orthogonalLoop=1;jettySize=auto;html=1;endArrow=oval;endFill=0;sketch=0;sourcePerimeterSpacing=0;targetPerimeterSpacing=0;endSize=10;exitX=0.718;exitY=-0.017;exitDx=0;exitDy=0;exitPerimeter=0;" parent="1" source="VERpzVBWQR2P2o2Z3do2-13" target="VERpzVBWQR2P2o2Z3do2-82" edge="1">
          <mxGeometry relative="1" as="geometry">
            <mxPoint x="100" y="225" as="sourcePoint" />
          </mxGeometry>
        </mxCell>
        <mxCell id="VERpzVBWQR2P2o2Z3do2-82" value="" style="ellipse;whiteSpace=wrap;html=1;align=center;aspect=fixed;fillColor=none;strokeColor=none;resizable=0;perimeter=centerPerimeter;rotatable=0;allowArrows=0;points=[];outlineConnect=1;" parent="1" vertex="1">
          <mxGeometry x="112" y="210" width="10" height="10" as="geometry" />
        </mxCell>
        <mxCell id="VERpzVBWQR2P2o2Z3do2-84" value="" style="rounded=0;orthogonalLoop=1;jettySize=auto;html=1;endArrow=oval;endFill=0;sketch=0;sourcePerimeterSpacing=0;targetPerimeterSpacing=0;endSize=10;exitX=0.5;exitY=0;exitDx=0;exitDy=0;" parent="1" source="LsTmcPjPgr7ocmJJOF8i-37" target="VERpzVBWQR2P2o2Z3do2-85" edge="1">
          <mxGeometry relative="1" as="geometry">
            <mxPoint x="260" y="215" as="sourcePoint" />
          </mxGeometry>
        </mxCell>
        <mxCell id="VERpzVBWQR2P2o2Z3do2-85" value="" style="ellipse;whiteSpace=wrap;html=1;align=center;aspect=fixed;fillColor=none;strokeColor=none;resizable=0;perimeter=centerPerimeter;rotatable=0;allowArrows=0;points=[];outlineConnect=1;" parent="1" vertex="1">
          <mxGeometry x="230" y="140" width="10" height="10" as="geometry" />
        </mxCell>
        <mxCell id="VERpzVBWQR2P2o2Z3do2-88" value="" style="ellipse;whiteSpace=wrap;html=1;align=center;aspect=fixed;fillColor=none;strokeColor=none;resizable=0;perimeter=centerPerimeter;rotatable=0;allowArrows=0;points=[];outlineConnect=1;" parent="1" vertex="1">
          <mxGeometry x="-240" y="200" width="10" height="10" as="geometry" />
        </mxCell>
        <mxCell id="VERpzVBWQR2P2o2Z3do2-91" value="" style="ellipse;whiteSpace=wrap;html=1;align=center;aspect=fixed;fillColor=none;strokeColor=none;resizable=0;perimeter=centerPerimeter;rotatable=0;allowArrows=0;points=[];outlineConnect=1;" parent="1" vertex="1">
          <mxGeometry x="-350" y="220" width="10" height="10" as="geometry" />
        </mxCell>
        <mxCell id="VERpzVBWQR2P2o2Z3do2-96" value="" style="ellipse;whiteSpace=wrap;html=1;align=center;aspect=fixed;fillColor=none;strokeColor=none;resizable=0;perimeter=centerPerimeter;rotatable=0;allowArrows=0;points=[];outlineConnect=1;" parent="1" vertex="1">
          <mxGeometry x="-440" y="134" width="10" height="10" as="geometry" />
        </mxCell>
        <mxCell id="VERpzVBWQR2P2o2Z3do2-97" value="" style="rounded=0;orthogonalLoop=1;jettySize=auto;html=1;endArrow=halfCircle;endFill=0;endSize=6;strokeWidth=1;sketch=0;exitX=0.5;exitY=1;exitDx=0;exitDy=0;" parent="1" source="VERpzVBWQR2P2o2Z3do2-54" edge="1">
          <mxGeometry relative="1" as="geometry">
            <mxPoint x="-35" y="795" as="sourcePoint" />
            <mxPoint x="-120" y="910" as="targetPoint" />
          </mxGeometry>
        </mxCell>
        <mxCell id="VERpzVBWQR2P2o2Z3do2-98" value="" style="rounded=0;orthogonalLoop=1;jettySize=auto;html=1;endArrow=oval;endFill=0;sketch=0;sourcePerimeterSpacing=0;targetPerimeterSpacing=0;endSize=10;exitX=0.5;exitY=0;exitDx=0;exitDy=0;" parent="1" source="VERpzVBWQR2P2o2Z3do2-52" edge="1">
          <mxGeometry relative="1" as="geometry">
            <mxPoint x="-75" y="910" as="sourcePoint" />
            <mxPoint x="-120" y="910" as="targetPoint" />
          </mxGeometry>
        </mxCell>
        <mxCell id="VERpzVBWQR2P2o2Z3do2-99" value="" style="ellipse;whiteSpace=wrap;html=1;align=center;aspect=fixed;fillColor=none;strokeColor=none;resizable=0;perimeter=centerPerimeter;rotatable=0;allowArrows=0;points=[];outlineConnect=1;" parent="1" vertex="1">
          <mxGeometry x="-20" y="790" width="10" height="10" as="geometry" />
        </mxCell>
        <mxCell id="L-aPLiKNnRhUDN-5XwOW-1" value="Llamada&amp;nbsp;&lt;div&gt;Telefonica&lt;/div&gt;" style="text;html=1;align=center;verticalAlign=middle;whiteSpace=wrap;rounded=0;" parent="1" vertex="1">
          <mxGeometry x="-443" y="84" width="60" height="30" as="geometry" />
        </mxCell>
        <mxCell id="L-aPLiKNnRhUDN-5XwOW-2" value="API Cliente" style="text;html=1;align=center;verticalAlign=middle;whiteSpace=wrap;rounded=0;" parent="1" vertex="1">
          <mxGeometry x="195" y="99" width="70" height="30" as="geometry" />
        </mxCell>
        <mxCell id="L-aPLiKNnRhUDN-5XwOW-7" value="" style="ellipse;whiteSpace=wrap;html=1;align=center;aspect=fixed;fillColor=none;strokeColor=none;resizable=0;perimeter=centerPerimeter;rotatable=0;allowArrows=0;points=[];outlineConnect=1;" parent="1" vertex="1">
          <mxGeometry x="-400" y="400" width="10" height="10" as="geometry" />
        </mxCell>
        <mxCell id="oiPzUD7GclOgU0IUyKZR-3" value="" style="ellipse;whiteSpace=wrap;html=1;align=center;aspect=fixed;fillColor=none;strokeColor=none;resizable=0;perimeter=centerPerimeter;rotatable=0;allowArrows=0;points=[];outlineConnect=1;" parent="1" vertex="1">
          <mxGeometry x="26.25" y="410" width="10" height="10" as="geometry" />
        </mxCell>
        <mxCell id="LsTmcPjPgr7ocmJJOF8i-1" value="&amp;lt;&amp;lt;component&amp;gt;&amp;gt;&lt;div&gt;&lt;b&gt;:Agente Correo&lt;/b&gt;&lt;/div&gt;" style="html=1;dropTarget=0;whiteSpace=wrap;fillColor=#d5e8d4;strokeColor=#82b366;" vertex="1" parent="1">
          <mxGeometry x="-460" y="290" width="100" height="55" as="geometry" />
        </mxCell>
        <mxCell id="LsTmcPjPgr7ocmJJOF8i-2" value="" style="shape=module;jettyWidth=8;jettyHeight=4;" vertex="1" parent="LsTmcPjPgr7ocmJJOF8i-1">
          <mxGeometry x="1" width="20" height="20" relative="1" as="geometry">
            <mxPoint x="-27" y="7" as="offset" />
          </mxGeometry>
        </mxCell>
        <mxCell id="LsTmcPjPgr7ocmJJOF8i-3" value="&amp;lt;&amp;lt;component&amp;gt;&amp;gt;&lt;div&gt;&lt;b&gt;:ChatBot&lt;/b&gt;&lt;/div&gt;" style="html=1;dropTarget=0;whiteSpace=wrap;fillColor=#d5e8d4;strokeColor=#82b366;" vertex="1" parent="1">
          <mxGeometry x="-230" y="290" width="90" height="57.5" as="geometry" />
        </mxCell>
        <mxCell id="LsTmcPjPgr7ocmJJOF8i-4" value="" style="shape=module;jettyWidth=8;jettyHeight=4;" vertex="1" parent="LsTmcPjPgr7ocmJJOF8i-3">
          <mxGeometry x="1" width="20" height="20" relative="1" as="geometry">
            <mxPoint x="-27" y="7" as="offset" />
          </mxGeometry>
        </mxCell>
        <mxCell id="LsTmcPjPgr7ocmJJOF8i-14" value="" style="ellipse;whiteSpace=wrap;html=1;align=center;aspect=fixed;fillColor=none;strokeColor=none;resizable=0;perimeter=centerPerimeter;rotatable=0;allowArrows=0;points=[];outlineConnect=1;" vertex="1" parent="1">
          <mxGeometry x="36.25" y="490" width="10" height="10" as="geometry" />
        </mxCell>
        <mxCell id="LsTmcPjPgr7ocmJJOF8i-19" value="&amp;lt;&amp;lt;component&amp;gt;&amp;gt;&lt;div&gt;&lt;b&gt;:Gestor&lt;/b&gt;&lt;/div&gt;&lt;div&gt;&lt;b&gt;LLamadas&lt;/b&gt;&lt;/div&gt;" style="html=1;dropTarget=0;whiteSpace=wrap;fillColor=#d5e8d4;strokeColor=#82b366;" vertex="1" parent="1">
          <mxGeometry x="-348.25" y="290" width="108.25" height="55" as="geometry" />
        </mxCell>
        <mxCell id="LsTmcPjPgr7ocmJJOF8i-20" value="" style="shape=module;jettyWidth=8;jettyHeight=4;" vertex="1" parent="LsTmcPjPgr7ocmJJOF8i-19">
          <mxGeometry x="1" width="20" height="20" relative="1" as="geometry">
            <mxPoint x="-27" y="7" as="offset" />
          </mxGeometry>
        </mxCell>
        <mxCell id="LsTmcPjPgr7ocmJJOF8i-30" value="" style="rounded=0;orthogonalLoop=1;jettySize=auto;html=1;endArrow=halfCircle;endFill=0;endSize=6;strokeWidth=1;sketch=0;exitX=1;exitY=0.5;exitDx=0;exitDy=0;" edge="1" target="LsTmcPjPgr7ocmJJOF8i-32" parent="1" source="VERpzVBWQR2P2o2Z3do2-28">
          <mxGeometry relative="1" as="geometry">
            <mxPoint x="152" y="490" as="sourcePoint" />
          </mxGeometry>
        </mxCell>
        <mxCell id="LsTmcPjPgr7ocmJJOF8i-31" value="" style="rounded=0;orthogonalLoop=1;jettySize=auto;html=1;endArrow=oval;endFill=0;sketch=0;sourcePerimeterSpacing=0;targetPerimeterSpacing=0;endSize=10;exitX=0;exitY=0.5;exitDx=0;exitDy=0;" edge="1" target="LsTmcPjPgr7ocmJJOF8i-32" parent="1" source="VERpzVBWQR2P2o2Z3do2-32">
          <mxGeometry relative="1" as="geometry">
            <mxPoint x="112" y="490" as="sourcePoint" />
          </mxGeometry>
        </mxCell>
        <mxCell id="LsTmcPjPgr7ocmJJOF8i-32" value="" style="ellipse;whiteSpace=wrap;html=1;align=center;aspect=fixed;fillColor=none;strokeColor=none;resizable=0;perimeter=centerPerimeter;rotatable=0;allowArrows=0;points=[];outlineConnect=1;" vertex="1" parent="1">
          <mxGeometry x="132" y="570" width="10" height="10" as="geometry" />
        </mxCell>
        <mxCell id="LsTmcPjPgr7ocmJJOF8i-37" value="&amp;lt;&amp;lt;component&amp;gt;&amp;gt;&lt;div&gt;&lt;b&gt;:API&lt;/b&gt;&lt;/div&gt;" style="html=1;dropTarget=0;whiteSpace=wrap;fillColor=#d5e8d4;strokeColor=#82b366;" vertex="1" parent="1">
          <mxGeometry x="170" y="290" width="96.25" height="57.5" as="geometry" />
        </mxCell>
        <mxCell id="LsTmcPjPgr7ocmJJOF8i-38" value="" style="shape=module;jettyWidth=8;jettyHeight=4;" vertex="1" parent="LsTmcPjPgr7ocmJJOF8i-37">
          <mxGeometry x="1" width="20" height="20" relative="1" as="geometry">
            <mxPoint x="-27" y="7" as="offset" />
          </mxGeometry>
        </mxCell>
        <mxCell id="LsTmcPjPgr7ocmJJOF8i-53" value="" style="ellipse;whiteSpace=wrap;html=1;align=center;aspect=fixed;fillColor=none;strokeColor=none;resizable=0;perimeter=centerPerimeter;rotatable=0;allowArrows=0;points=[];outlineConnect=1;" vertex="1" parent="1">
          <mxGeometry x="-175" y="410" width="10" height="10" as="geometry" />
        </mxCell>
        <mxCell id="LsTmcPjPgr7ocmJJOF8i-54" value="" style="rounded=0;orthogonalLoop=1;jettySize=auto;html=1;endArrow=halfCircle;endFill=0;endSize=6;strokeWidth=1;sketch=0;exitX=1;exitY=0.5;exitDx=0;exitDy=0;" edge="1" target="LsTmcPjPgr7ocmJJOF8i-56" parent="1" source="VERpzVBWQR2P2o2Z3do2-26">
          <mxGeometry relative="1" as="geometry">
            <mxPoint x="-250" y="585" as="sourcePoint" />
          </mxGeometry>
        </mxCell>
        <mxCell id="LsTmcPjPgr7ocmJJOF8i-55" value="" style="rounded=0;orthogonalLoop=1;jettySize=auto;html=1;endArrow=oval;endFill=0;sketch=0;sourcePerimeterSpacing=0;targetPerimeterSpacing=0;endSize=10;exitX=0;exitY=0.5;exitDx=0;exitDy=0;" edge="1" target="LsTmcPjPgr7ocmJJOF8i-56" parent="1" source="VERpzVBWQR2P2o2Z3do2-30">
          <mxGeometry relative="1" as="geometry">
            <mxPoint x="-290" y="585" as="sourcePoint" />
          </mxGeometry>
        </mxCell>
        <mxCell id="LsTmcPjPgr7ocmJJOF8i-56" value="" style="ellipse;whiteSpace=wrap;html=1;align=center;aspect=fixed;fillColor=none;strokeColor=none;resizable=0;perimeter=centerPerimeter;rotatable=0;allowArrows=0;points=[];outlineConnect=1;" vertex="1" parent="1">
          <mxGeometry x="-260" y="510" width="10" height="10" as="geometry" />
        </mxCell>
        <mxCell id="LsTmcPjPgr7ocmJJOF8i-57" value="" style="rounded=0;orthogonalLoop=1;jettySize=auto;html=1;endArrow=halfCircle;endFill=0;endSize=6;strokeWidth=1;sketch=0;exitX=0.5;exitY=1;exitDx=0;exitDy=0;" edge="1" target="LsTmcPjPgr7ocmJJOF8i-59" parent="1" source="VERpzVBWQR2P2o2Z3do2-2">
          <mxGeometry relative="1" as="geometry">
            <mxPoint x="-230" y="205" as="sourcePoint" />
          </mxGeometry>
        </mxCell>
        <mxCell id="LsTmcPjPgr7ocmJJOF8i-58" value="" style="rounded=0;orthogonalLoop=1;jettySize=auto;html=1;endArrow=oval;endFill=0;sketch=0;sourcePerimeterSpacing=0;targetPerimeterSpacing=0;endSize=10;exitX=0.5;exitY=0;exitDx=0;exitDy=0;" edge="1" target="LsTmcPjPgr7ocmJJOF8i-59" parent="1" source="LsTmcPjPgr7ocmJJOF8i-19">
          <mxGeometry relative="1" as="geometry">
            <mxPoint x="-270" y="205" as="sourcePoint" />
          </mxGeometry>
        </mxCell>
        <mxCell id="LsTmcPjPgr7ocmJJOF8i-59" value="" style="ellipse;whiteSpace=wrap;html=1;align=center;aspect=fixed;fillColor=none;strokeColor=none;resizable=0;perimeter=centerPerimeter;rotatable=0;allowArrows=0;points=[];outlineConnect=1;" vertex="1" parent="1">
          <mxGeometry x="-340" y="200" width="10" height="10" as="geometry" />
        </mxCell>
        <mxCell id="LsTmcPjPgr7ocmJJOF8i-60" value="" style="rounded=0;orthogonalLoop=1;jettySize=auto;html=1;endArrow=halfCircle;endFill=0;endSize=6;strokeWidth=1;sketch=0;exitX=0.5;exitY=1;exitDx=0;exitDy=0;entryX=0.2;entryY=0.2;entryDx=0;entryDy=0;entryPerimeter=0;" edge="1" target="LsTmcPjPgr7ocmJJOF8i-59" parent="1" source="L-aPLiKNnRhUDN-5XwOW-1">
          <mxGeometry relative="1" as="geometry">
            <mxPoint x="-384" y="205" as="sourcePoint" />
          </mxGeometry>
        </mxCell>
        <mxCell id="LsTmcPjPgr7ocmJJOF8i-61" value="" style="rounded=0;orthogonalLoop=1;jettySize=auto;html=1;endArrow=oval;endFill=0;sketch=0;sourcePerimeterSpacing=0;targetPerimeterSpacing=0;endSize=10;exitX=0.5;exitY=0;exitDx=0;exitDy=0;entryX=0.7;entryY=0.6;entryDx=0;entryDy=0;entryPerimeter=0;" edge="1" target="LsTmcPjPgr7ocmJJOF8i-62" parent="1" source="LsTmcPjPgr7ocmJJOF8i-1">
          <mxGeometry relative="1" as="geometry">
            <mxPoint x="-424" y="205" as="sourcePoint" />
          </mxGeometry>
        </mxCell>
        <mxCell id="LsTmcPjPgr7ocmJJOF8i-62" value="" style="ellipse;whiteSpace=wrap;html=1;align=center;aspect=fixed;fillColor=none;strokeColor=none;resizable=0;perimeter=centerPerimeter;rotatable=0;allowArrows=0;points=[];outlineConnect=1;" vertex="1" parent="1">
          <mxGeometry x="-440" y="160" width="10" height="10" as="geometry" />
        </mxCell>
        <mxCell id="LsTmcPjPgr7ocmJJOF8i-63" value="Correo" style="text;html=1;align=center;verticalAlign=middle;whiteSpace=wrap;rounded=0;" vertex="1" parent="1">
          <mxGeometry x="-473" y="129" width="60" height="30" as="geometry" />
        </mxCell>
        <mxCell id="LsTmcPjPgr7ocmJJOF8i-64" value="" style="rounded=0;orthogonalLoop=1;jettySize=auto;html=1;endArrow=halfCircle;endFill=0;endSize=6;strokeWidth=1;sketch=0;exitX=0.5;exitY=1;exitDx=0;exitDy=0;" edge="1" target="LsTmcPjPgr7ocmJJOF8i-66" parent="1" source="VERpzVBWQR2P2o2Z3do2-8">
          <mxGeometry relative="1" as="geometry">
            <mxPoint x="-109" y="205" as="sourcePoint" />
          </mxGeometry>
        </mxCell>
        <mxCell id="LsTmcPjPgr7ocmJJOF8i-65" value="" style="rounded=0;orthogonalLoop=1;jettySize=auto;html=1;endArrow=oval;endFill=0;sketch=0;sourcePerimeterSpacing=0;targetPerimeterSpacing=0;endSize=10;exitX=0.5;exitY=0;exitDx=0;exitDy=0;" edge="1" target="LsTmcPjPgr7ocmJJOF8i-66" parent="1" source="LsTmcPjPgr7ocmJJOF8i-3">
          <mxGeometry relative="1" as="geometry">
            <mxPoint x="-149" y="205" as="sourcePoint" />
          </mxGeometry>
        </mxCell>
        <mxCell id="LsTmcPjPgr7ocmJJOF8i-66" value="" style="ellipse;whiteSpace=wrap;html=1;align=center;aspect=fixed;fillColor=none;strokeColor=none;resizable=0;perimeter=centerPerimeter;rotatable=0;allowArrows=0;points=[];outlineConnect=1;" vertex="1" parent="1">
          <mxGeometry x="-161.25" y="200" width="10" height="10" as="geometry" />
        </mxCell>
        <mxCell id="LsTmcPjPgr7ocmJJOF8i-67" value="" style="rounded=0;orthogonalLoop=1;jettySize=auto;html=1;endArrow=halfCircle;endFill=0;endSize=6;strokeWidth=1;sketch=0;exitX=1;exitY=0.5;exitDx=0;exitDy=0;" edge="1" target="LsTmcPjPgr7ocmJJOF8i-69" parent="1" source="VERpzVBWQR2P2o2Z3do2-26">
          <mxGeometry relative="1" as="geometry">
            <mxPoint x="-204" y="610" as="sourcePoint" />
          </mxGeometry>
        </mxCell>
        <mxCell id="LsTmcPjPgr7ocmJJOF8i-68" value="" style="rounded=0;orthogonalLoop=1;jettySize=auto;html=1;endArrow=oval;endFill=0;sketch=0;sourcePerimeterSpacing=0;targetPerimeterSpacing=0;endSize=10;exitX=0;exitY=0.5;exitDx=0;exitDy=0;" edge="1" target="LsTmcPjPgr7ocmJJOF8i-69" parent="1" source="VERpzVBWQR2P2o2Z3do2-28">
          <mxGeometry relative="1" as="geometry">
            <mxPoint x="-244" y="610" as="sourcePoint" />
          </mxGeometry>
        </mxCell>
        <mxCell id="LsTmcPjPgr7ocmJJOF8i-69" value="" style="ellipse;whiteSpace=wrap;html=1;align=center;aspect=fixed;fillColor=none;strokeColor=none;resizable=0;perimeter=centerPerimeter;rotatable=0;allowArrows=0;points=[];outlineConnect=1;" vertex="1" parent="1">
          <mxGeometry x="-260" y="570" width="10" height="10" as="geometry" />
        </mxCell>
        <mxCell id="LsTmcPjPgr7ocmJJOF8i-70" value="" style="rounded=0;orthogonalLoop=1;jettySize=auto;html=1;endArrow=halfCircle;endFill=0;endSize=6;strokeWidth=1;sketch=0;exitX=0.5;exitY=1;exitDx=0;exitDy=0;" edge="1" target="LsTmcPjPgr7ocmJJOF8i-72" parent="1" source="VERpzVBWQR2P2o2Z3do2-13">
          <mxGeometry relative="1" as="geometry">
            <mxPoint x="40" y="415" as="sourcePoint" />
          </mxGeometry>
        </mxCell>
        <mxCell id="LsTmcPjPgr7ocmJJOF8i-71" value="" style="rounded=0;orthogonalLoop=1;jettySize=auto;html=1;endArrow=oval;endFill=0;sketch=0;sourcePerimeterSpacing=0;targetPerimeterSpacing=0;endSize=10;exitX=0.75;exitY=0;exitDx=0;exitDy=0;" edge="1" target="LsTmcPjPgr7ocmJJOF8i-72" parent="1" source="VERpzVBWQR2P2o2Z3do2-28">
          <mxGeometry relative="1" as="geometry">
            <mxPoint y="415" as="sourcePoint" />
          </mxGeometry>
        </mxCell>
        <mxCell id="LsTmcPjPgr7ocmJJOF8i-72" value="" style="ellipse;whiteSpace=wrap;html=1;align=center;aspect=fixed;fillColor=none;strokeColor=none;resizable=0;perimeter=centerPerimeter;rotatable=0;allowArrows=0;points=[];outlineConnect=1;" vertex="1" parent="1">
          <mxGeometry x="70" y="410" width="10" height="10" as="geometry" />
        </mxCell>
        <mxCell id="LsTmcPjPgr7ocmJJOF8i-73" value="" style="rounded=0;orthogonalLoop=1;jettySize=auto;html=1;endArrow=halfCircle;endFill=0;endSize=6;strokeWidth=1;sketch=0;exitX=0.5;exitY=1;exitDx=0;exitDy=0;entryX=0.275;entryY=0.5;entryDx=0;entryDy=0;entryPerimeter=0;" edge="1" target="LsTmcPjPgr7ocmJJOF8i-72" parent="1" source="LsTmcPjPgr7ocmJJOF8i-37">
          <mxGeometry relative="1" as="geometry">
            <mxPoint x="95" y="415" as="sourcePoint" />
          </mxGeometry>
        </mxCell>
        <mxCell id="LsTmcPjPgr7ocmJJOF8i-76" value="" style="rounded=0;orthogonalLoop=1;jettySize=auto;html=1;endArrow=halfCircle;endFill=0;endSize=6;strokeWidth=1;sketch=0;exitX=0.25;exitY=1;exitDx=0;exitDy=0;" edge="1" target="LsTmcPjPgr7ocmJJOF8i-78" parent="1" source="VERpzVBWQR2P2o2Z3do2-13">
          <mxGeometry relative="1" as="geometry">
            <mxPoint x="-25" y="415" as="sourcePoint" />
          </mxGeometry>
        </mxCell>
        <mxCell id="LsTmcPjPgr7ocmJJOF8i-77" value="" style="rounded=0;orthogonalLoop=1;jettySize=auto;html=1;endArrow=oval;endFill=0;sketch=0;sourcePerimeterSpacing=0;targetPerimeterSpacing=0;endSize=10;exitX=0.5;exitY=0;exitDx=0;exitDy=0;" edge="1" target="LsTmcPjPgr7ocmJJOF8i-78" parent="1" source="VERpzVBWQR2P2o2Z3do2-30">
          <mxGeometry relative="1" as="geometry">
            <mxPoint x="-65" y="415" as="sourcePoint" />
          </mxGeometry>
        </mxCell>
        <mxCell id="LsTmcPjPgr7ocmJJOF8i-78" value="" style="ellipse;whiteSpace=wrap;html=1;align=center;aspect=fixed;fillColor=none;strokeColor=none;resizable=0;perimeter=centerPerimeter;rotatable=0;allowArrows=0;points=[];outlineConnect=1;" vertex="1" parent="1">
          <mxGeometry x="-10" y="410" width="10" height="10" as="geometry" />
        </mxCell>
        <mxCell id="LsTmcPjPgr7ocmJJOF8i-80" value="&amp;lt;&amp;lt;component&amp;gt;&amp;gt;&lt;div&gt;&lt;b&gt;:Cliente&lt;/b&gt;&lt;/div&gt;" style="html=1;dropTarget=0;whiteSpace=wrap;" vertex="1" parent="1">
          <mxGeometry x="-1.25" y="740" width="112.5" height="60" as="geometry" />
        </mxCell>
        <mxCell id="LsTmcPjPgr7ocmJJOF8i-81" value="" style="shape=module;jettyWidth=8;jettyHeight=4;" vertex="1" parent="LsTmcPjPgr7ocmJJOF8i-80">
          <mxGeometry x="1" width="20" height="20" relative="1" as="geometry">
            <mxPoint x="-27" y="7" as="offset" />
          </mxGeometry>
        </mxCell>
        <mxCell id="LsTmcPjPgr7ocmJJOF8i-82" value="&amp;lt;&amp;lt;component&amp;gt;&amp;gt;&lt;div&gt;&lt;b&gt;:Usuario&lt;/b&gt;&lt;/div&gt;" style="html=1;dropTarget=0;whiteSpace=wrap;" vertex="1" parent="1">
          <mxGeometry x="-132.5" y="740" width="112.5" height="60" as="geometry" />
        </mxCell>
        <mxCell id="LsTmcPjPgr7ocmJJOF8i-83" value="" style="shape=module;jettyWidth=8;jettyHeight=4;" vertex="1" parent="LsTmcPjPgr7ocmJJOF8i-82">
          <mxGeometry x="1" width="20" height="20" relative="1" as="geometry">
            <mxPoint x="-27" y="7" as="offset" />
          </mxGeometry>
        </mxCell>
        <mxCell id="LsTmcPjPgr7ocmJJOF8i-84" value="" style="rounded=0;orthogonalLoop=1;jettySize=auto;html=1;endArrow=halfCircle;endFill=0;endSize=6;strokeWidth=1;sketch=0;exitX=0.5;exitY=1;exitDx=0;exitDy=0;" edge="1" parent="1" source="LsTmcPjPgr7ocmJJOF8i-82">
          <mxGeometry relative="1" as="geometry">
            <mxPoint x="-1" y="925" as="sourcePoint" />
            <mxPoint x="-120" y="910" as="targetPoint" />
          </mxGeometry>
        </mxCell>
        <mxCell id="LsTmcPjPgr7ocmJJOF8i-87" value="" style="rounded=0;orthogonalLoop=1;jettySize=auto;html=1;endArrow=halfCircle;endFill=0;endSize=6;strokeWidth=1;sketch=0;exitX=0.562;exitY=1;exitDx=0;exitDy=0;exitPerimeter=0;" edge="1" parent="1" source="LsTmcPjPgr7ocmJJOF8i-80">
          <mxGeometry relative="1" as="geometry">
            <mxPoint x="-20" y="925" as="sourcePoint" />
            <mxPoint x="-120" y="910" as="targetPoint" />
          </mxGeometry>
        </mxCell>
        <mxCell id="LsTmcPjPgr7ocmJJOF8i-90" value="" style="rounded=0;orthogonalLoop=1;jettySize=auto;html=1;endArrow=halfCircle;endFill=0;endSize=6;strokeWidth=1;sketch=0;exitX=0.25;exitY=1;exitDx=0;exitDy=0;" edge="1" target="LsTmcPjPgr7ocmJJOF8i-92" parent="1" source="VERpzVBWQR2P2o2Z3do2-30">
          <mxGeometry relative="1" as="geometry">
            <mxPoint x="-109" y="655" as="sourcePoint" />
          </mxGeometry>
        </mxCell>
        <mxCell id="LsTmcPjPgr7ocmJJOF8i-91" value="" style="rounded=0;orthogonalLoop=1;jettySize=auto;html=1;endArrow=oval;endFill=0;sketch=0;sourcePerimeterSpacing=0;targetPerimeterSpacing=0;endSize=10;exitX=0.5;exitY=0;exitDx=0;exitDy=0;" edge="1" target="LsTmcPjPgr7ocmJJOF8i-92" parent="1" source="VERpzVBWQR2P2o2Z3do2-54">
          <mxGeometry relative="1" as="geometry">
            <mxPoint x="-149" y="655" as="sourcePoint" />
          </mxGeometry>
        </mxCell>
        <mxCell id="LsTmcPjPgr7ocmJJOF8i-92" value="" style="ellipse;whiteSpace=wrap;html=1;align=center;aspect=fixed;fillColor=none;strokeColor=none;resizable=0;perimeter=centerPerimeter;rotatable=0;allowArrows=0;points=[];outlineConnect=1;" vertex="1" parent="1">
          <mxGeometry x="-187.5" y="650" width="10" height="10" as="geometry" />
        </mxCell>
        <mxCell id="LsTmcPjPgr7ocmJJOF8i-93" value="" style="rounded=0;orthogonalLoop=1;jettySize=auto;html=1;endArrow=halfCircle;endFill=0;endSize=6;strokeWidth=1;sketch=0;exitX=0.75;exitY=1;exitDx=0;exitDy=0;" edge="1" target="LsTmcPjPgr7ocmJJOF8i-95" parent="1" source="VERpzVBWQR2P2o2Z3do2-30">
          <mxGeometry relative="1" as="geometry">
            <mxPoint x="-120" y="550" as="sourcePoint" />
          </mxGeometry>
        </mxCell>
        <mxCell id="LsTmcPjPgr7ocmJJOF8i-94" value="" style="rounded=0;orthogonalLoop=1;jettySize=auto;html=1;endArrow=oval;endFill=0;sketch=0;sourcePerimeterSpacing=0;targetPerimeterSpacing=0;endSize=10;exitX=0.5;exitY=0;exitDx=0;exitDy=0;" edge="1" target="LsTmcPjPgr7ocmJJOF8i-95" parent="1" source="LsTmcPjPgr7ocmJJOF8i-82">
          <mxGeometry relative="1" as="geometry">
            <mxPoint x="-50" y="655" as="sourcePoint" />
          </mxGeometry>
        </mxCell>
        <mxCell id="LsTmcPjPgr7ocmJJOF8i-95" value="" style="ellipse;whiteSpace=wrap;html=1;align=center;aspect=fixed;fillColor=none;strokeColor=none;resizable=0;perimeter=centerPerimeter;rotatable=0;allowArrows=0;points=[];outlineConnect=1;" vertex="1" parent="1">
          <mxGeometry x="-81.25" y="650" width="10" height="10" as="geometry" />
        </mxCell>
        <mxCell id="LsTmcPjPgr7ocmJJOF8i-96" value="" style="rounded=0;orthogonalLoop=1;jettySize=auto;html=1;endArrow=halfCircle;endFill=0;endSize=6;strokeWidth=1;sketch=0;exitX=0.5;exitY=1;exitDx=0;exitDy=0;" edge="1" target="LsTmcPjPgr7ocmJJOF8i-98" parent="1" source="VERpzVBWQR2P2o2Z3do2-28">
          <mxGeometry relative="1" as="geometry">
            <mxPoint x="100" y="655" as="sourcePoint" />
          </mxGeometry>
        </mxCell>
        <mxCell id="LsTmcPjPgr7ocmJJOF8i-97" value="" style="rounded=0;orthogonalLoop=1;jettySize=auto;html=1;endArrow=oval;endFill=0;sketch=0;sourcePerimeterSpacing=0;targetPerimeterSpacing=0;endSize=10;exitX=0.5;exitY=0;exitDx=0;exitDy=0;" edge="1" target="LsTmcPjPgr7ocmJJOF8i-98" parent="1" source="LsTmcPjPgr7ocmJJOF8i-80">
          <mxGeometry relative="1" as="geometry">
            <mxPoint x="60" y="655" as="sourcePoint" />
          </mxGeometry>
        </mxCell>
        <mxCell id="LsTmcPjPgr7ocmJJOF8i-98" value="" style="ellipse;whiteSpace=wrap;html=1;align=center;aspect=fixed;fillColor=none;strokeColor=none;resizable=0;perimeter=centerPerimeter;rotatable=0;allowArrows=0;points=[];outlineConnect=1;" vertex="1" parent="1">
          <mxGeometry x="50" y="650" width="10" height="10" as="geometry" />
        </mxCell>
        <mxCell id="LsTmcPjPgr7ocmJJOF8i-99" value="&amp;lt;&amp;lt;component&amp;gt;&amp;gt;&lt;div&gt;&lt;b&gt;:WA&lt;/b&gt;&lt;/div&gt;" style="html=1;dropTarget=0;whiteSpace=wrap;fillColor=#f8cecc;strokeColor=#b85450;" vertex="1" parent="1">
          <mxGeometry x="-128.75" y="290" width="90" height="57.5" as="geometry" />
        </mxCell>
        <mxCell id="LsTmcPjPgr7ocmJJOF8i-100" value="" style="shape=module;jettyWidth=8;jettyHeight=4;" vertex="1" parent="LsTmcPjPgr7ocmJJOF8i-99">
          <mxGeometry x="1" width="20" height="20" relative="1" as="geometry">
            <mxPoint x="-27" y="7" as="offset" />
          </mxGeometry>
        </mxCell>
        <mxCell id="LsTmcPjPgr7ocmJJOF8i-103" value="" style="ellipse;whiteSpace=wrap;html=1;align=center;aspect=fixed;fillColor=none;strokeColor=none;resizable=0;perimeter=centerPerimeter;rotatable=0;allowArrows=0;points=[];outlineConnect=1;" vertex="1" parent="1">
          <mxGeometry x="-235" y="420" width="10" height="10" as="geometry" />
        </mxCell>
        <mxCell id="LsTmcPjPgr7ocmJJOF8i-104" value="Interfaz" style="html=1;whiteSpace=wrap;fillColor=#fff2cc;strokeColor=#d6b656;" vertex="1" parent="1">
          <mxGeometry x="-480" y="390" width="435" height="20" as="geometry" />
        </mxCell>
        <mxCell id="LsTmcPjPgr7ocmJJOF8i-105" value="" style="endArrow=classic;html=1;rounded=0;exitX=0.5;exitY=1;exitDx=0;exitDy=0;" edge="1" parent="1" source="LsTmcPjPgr7ocmJJOF8i-1">
          <mxGeometry width="50" height="50" relative="1" as="geometry">
            <mxPoint x="-360" y="440" as="sourcePoint" />
            <mxPoint x="-410" y="389" as="targetPoint" />
          </mxGeometry>
        </mxCell>
        <mxCell id="LsTmcPjPgr7ocmJJOF8i-106" value="" style="endArrow=classic;html=1;rounded=0;exitX=0.5;exitY=1;exitDx=0;exitDy=0;" edge="1" parent="1">
          <mxGeometry width="50" height="50" relative="1" as="geometry">
            <mxPoint x="-294.62" y="347.5" as="sourcePoint" />
            <mxPoint x="-294.62" y="391.5" as="targetPoint" />
          </mxGeometry>
        </mxCell>
        <mxCell id="LsTmcPjPgr7ocmJJOF8i-107" value="" style="endArrow=classic;html=1;rounded=0;exitX=0.5;exitY=1;exitDx=0;exitDy=0;" edge="1" parent="1">
          <mxGeometry width="50" height="50" relative="1" as="geometry">
            <mxPoint x="-183" y="347.5" as="sourcePoint" />
            <mxPoint x="-183" y="391.5" as="targetPoint" />
          </mxGeometry>
        </mxCell>
        <mxCell id="LsTmcPjPgr7ocmJJOF8i-108" value="" style="endArrow=classic;html=1;rounded=0;exitX=0.5;exitY=1;exitDx=0;exitDy=0;" edge="1" parent="1">
          <mxGeometry width="50" height="50" relative="1" as="geometry">
            <mxPoint x="-84.25" y="347.5" as="sourcePoint" />
            <mxPoint x="-84.25" y="391.5" as="targetPoint" />
          </mxGeometry>
        </mxCell>
        <mxCell id="LsTmcPjPgr7ocmJJOF8i-109" value="" style="endArrow=classic;html=1;rounded=0;exitX=0.5;exitY=0;exitDx=0;exitDy=0;" edge="1" parent="1" source="VERpzVBWQR2P2o2Z3do2-26">
          <mxGeometry width="50" height="50" relative="1" as="geometry">
            <mxPoint x="-284.62" y="357.5" as="sourcePoint" />
            <mxPoint x="-363" y="410" as="targetPoint" />
          </mxGeometry>
        </mxCell>
      </root>
    </mxGraphModel>
  </diagram>
</mxfile>
